<?xml version="1.0" encoding="utf-8"?>
<!-- Generator: Adobe Illustrator 23.0.5, SVG Export Plug-In . SVG Version: 6.00 Build 0)  -->
<svg version="1.1" id="Layer_1" xmlns="http://www.w3.org/2000/svg" xmlns:xlink="http://www.w3.org/1999/xlink" x="0px" y="0px"
	 viewBox="0 0 512 512" style="enable-background:new 0 0 512 512;" xml:space="preserve">
<style type="text/css">
	.st0{clip-path:url(#SVGID_2_);fill:#45BC96;}
</style>
<g>
	<defs>
		<rect id="SVGID_1_" width="512" height="512"/>
	</defs>
	<clipPath id="SVGID_2_">
		<use xlink:href="#SVGID_1_"  style="overflow:visible;"/>
	</clipPath>
	<path class="st0" d="M252.87,63.6c34.76,0,69.52,0.06,104.27-0.01c53.63-0.11,93.81,39.73,93.83,93.2
		c0.02,55.96-0.31,111.92,0.07,167.88c0.21,31.44-8.83,59.61-31.64,81.07c-30.08,28.29-61.9,54.76-93.37,81.53
		c-3.85,3.27-10.1,4.62-15.4,5.09c-9.95,0.9-15.79-3.72-15.5-13.69c0.99-33.93-15.62-37.7-42.54-37.23
		c-36.45,0.64-73.08,1.34-109.37-1.41c-50.93-3.86-91.59-49.57-91.93-100.49c-0.4-60.48-0.44-120.96-0.09-181.44
		c0.32-54.47,40.62-94.17,95.31-94.47C181.96,63.44,217.42,63.6,252.87,63.6 M231.44,275.67c-7.47,30.92-25.86,45.82-60.33,49.41
		c-18.3,1.91-18.3,1.91-17.6,20.29c0.05,1.39-0.41,3.26,0.31,4.08c2.46,2.79,5.15,7.22,8.08,7.49c41.24,3.8,78.41-8.32,98.26-53.4
		c12.56-28.52,13.91-58.6,8.81-88.87c-9.23-54.86-58.92-67.31-96.93-51.62c-25.31,10.45-39.57,29.96-40.56,57.8
		c-0.91,25.73,10.47,44.86,33.26,56.74C187,289.19,209.3,287.73,231.44,275.67 M355.74,354.85V156.33
		c-11.66,2.38-22.79,2.55-31.82,6.99c-12.95,6.38-24.48,15.71-36.32,24.2c-2.36,1.69-4.84,5.29-4.76,7.94
		c0.27,9.24,1.63,18.46,2.73,29.19c11.05-5.04,21.46-9.79,33.26-15.17v145.37H355.74z"/>
	<path class="st0" d="M202.88,250.66c-18.98,0.1-31.69-11.14-31.83-28.17c-0.16-18.29,12.7-31.23,31.5-31.7
		c17.91-0.45,31.14,12.23,31.54,30.24C234.5,239.38,222.73,250.56,202.88,250.66"/>
</g>
</svg>
