<?xml version="1.0" encoding="utf-8"?>
<!-- Generator: Adobe Illustrator 23.0.5, SVG Export Plug-In . SVG Version: 6.00 Build 0)  -->
<svg version="1.1" id="Layer_1" xmlns="http://www.w3.org/2000/svg" xmlns:xlink="http://www.w3.org/1999/xlink" x="0px" y="0px"
	 viewBox="0 0 490.21 134.02" style="enable-background:new 0 0 490.21 134.02;" xml:space="preserve">
<style type="text/css">
	.st0{clip-path:url(#SVGID_2_);fill:#45BC96;}
</style>
<g>
	<defs>
		<rect id="SVGID_1_" width="490.21" height="134.02"/>
	</defs>
	<clipPath id="SVGID_2_">
		<use xlink:href="#SVGID_1_"  style="overflow:visible;"/>
	</clipPath>
	<path class="st0" d="M64.89,1.95c10.6,0,21.2,0.02,31.8,0c16.35-0.03,28.61,12.11,28.61,28.42c0,17.06-0.1,34.13,0.02,51.19
		c0.06,9.59-2.69,18.18-9.65,24.72c-9.17,8.63-18.87,16.7-28.47,24.86c-1.17,1-3.08,1.41-4.7,1.55c-3.03,0.27-4.81-1.14-4.73-4.17
		c0.3-10.35-4.76-11.49-12.97-11.35c-11.11,0.2-22.28,0.41-33.35-0.43c-15.53-1.18-27.93-15.11-28.03-30.64
		C3.3,67.65,3.29,49.21,3.4,30.77C3.49,14.16,15.78,2.05,32.46,1.96C43.27,1.9,54.08,1.95,64.89,1.95 M58.36,66.62
		c-2.28,9.43-7.89,13.97-18.4,15.07c-5.58,0.58-5.58,0.58-5.37,6.19c0.02,0.42-0.13,0.99,0.09,1.24c0.75,0.85,1.57,2.2,2.46,2.28
		c12.58,1.16,23.91-2.54,29.96-16.28c3.83-8.69,4.24-17.87,2.69-27.1c-2.82-16.73-17.97-20.53-29.56-15.74
		c-7.72,3.19-12.07,9.14-12.37,17.63c-0.28,7.84,3.19,13.68,10.14,17.3C44.81,70.74,51.61,70.29,58.36,66.62 M96.26,90.76V30.23
		c-3.56,0.73-6.95,0.78-9.7,2.13c-3.95,1.95-7.46,4.79-11.07,7.38c-0.72,0.52-1.48,1.61-1.45,2.42c0.08,2.82,0.5,5.63,0.83,8.9
		c3.37-1.54,6.54-2.99,10.14-4.63v44.33H96.26z"/>
	<path class="st0" d="M167.31,74.13c1.92-7.72,3.63-14.54,5.3-21.37c1.51-6.14,3.03-12.28,4.44-18.45c0.36-1.59,0.91-2.35,2.7-2.28
		c3.59,0.14,7.2,0.04,11.05,0.04c3.32,13.67,6.63,27.25,10.16,41.76c3.05-14.65,5.91-28.39,8.77-42.17h13.7
		c-4.92,21.06-9.79,41.95-14.68,62.88h-14.2c-3.38-13.65-6.76-27.32-10.35-41.8c-3.64,14.3-7.11,27.92-10.62,41.7H159.4
		c-4.8-20.74-9.61-41.56-14.48-62.61h13.52C161.31,45.49,164.21,59.33,167.31,74.13"/>
	<path class="st0" d="M405.25,80.62c3.71-0.85,7.27-1.74,10.86-2.42c0.52-0.1,1.44,0.6,1.81,1.16c4.26,6.66,12.4,7.08,17.23,0.82
		c2.31-2.99,3.38-6.4,3.51-10.67c-3.82,1.18-7.73,3-11.8,3.54c-10.96,1.46-20.98-7.8-21.4-18.89c-0.33-8.7,2.57-15.7,10.14-20.09
		c8.19-4.75,16.81-4.61,25.15-0.28c5.79,3.01,8.5,8.58,9.64,14.62c1.96,10.38,2.08,20.87-0.98,31.11
		c-3.27,10.9-12.24,16.85-23.65,16.1C415.01,94.92,408.1,90.06,405.25,80.62 M428.84,62.29c6.51-0.03,10.08-3.6,9.99-9.95
		c-0.09-6.37-4.04-10.34-10.28-10.35c-6.04,0-10.34,4.34-10.29,10.39C418.31,58.58,422.31,62.32,428.84,62.29"/>
	<path class="st0" d="M269.98,94.46h-12.12c0-8.71,0.01-17.27-0.01-25.82c0-1.37-0.02-2.77-0.3-4.1c-0.95-4.6-3.64-6.81-8.12-6.83
		c-4.44-0.02-7.82,2.47-8.65,6.8c-0.47,2.47-0.52,5.05-0.54,7.57c-0.07,7.39-0.02,14.79-0.02,22.36h-12.14V31.08
		c3.49,0,7.05-0.13,10.58,0.13c0.59,0.04,1.46,1.84,1.48,2.85c0.14,6.25,0.07,12.5,0.07,18.76v2.53c3.31-4.59,6.81-7.45,11.87-8.25
		c8.85-1.4,17.26,4.04,17.76,12.91C270.47,71.38,269.98,82.82,269.98,94.46"/>
	<path class="st0" d="M307.33,88.73c-6.51,7.05-15.63,8.89-23.33,4.77c-5.78-3.09-7.63-8.16-7.03-14.38
		c0.52-5.42,3.74-8.84,8.77-9.99c6.86-1.57,13.86-2.49,20.93-3.72c0.85-4.67-0.47-7.27-4.43-8.2c-5.83-1.37-9.58,0.68-11.18,6.25
		c-2.66-0.53-5.34-1.04-8.01-1.6c-1.12-0.23-2.22-0.55-3.55-0.88c0.24-4.3,2.07-7.57,5.39-10c6.88-5.05,20.65-5.43,27.83-0.89
		c4.77,3.01,6.39,7.65,6.88,12.9c0.09,0.95,0.03,1.91,0.03,2.86c0,9.43,0,18.85,0,28.52H308.3
		C308.01,92.66,307.69,90.82,307.33,88.73 M307.35,73.64c-1.49,0-2.76-0.12-4,0.02c-3.04,0.36-6.12,0.61-9.08,1.33
		c-3.49,0.84-5.1,3.36-4.53,6.55c0.58,3.27,3.22,3.96,5.93,4.14C303.24,86.19,307.36,81.95,307.35,73.64"/>
	<path class="st0" d="M400.71,60.56c-4.57,0.58-8.42,1.07-12.23,1.5c-2.17-5.01-6.3-7.07-11.56-5.34c-1.51,0.5-3.49,2.26-3.59,3.57
		c-0.09,1.28,1.68,3.31,3.1,3.95c2.65,1.19,5.68,1.51,8.5,2.36c3.12,0.93,6.39,1.64,9.24,3.14c8.04,4.23,8.69,16.3,1.37,21.66
		c-7.28,5.32-22.54,5.56-29.88,0.39c-3.4-2.39-5.63-5.6-6.37-10.26c4.23-0.58,8.36-1.14,12.48-1.71c1.45,6.66,6.8,7,13.24,5.18
		c1.16-0.33,2.53-2.45,2.51-3.74c-0.01-1.26-1.41-3.21-2.63-3.64c-3.55-1.26-7.33-1.87-11.01-2.81c-5.46-1.39-10.57-3.38-12.74-9.25
		c-1.93-5.22-0.36-10.57,4.03-14.3c8.04-6.82,24.96-5.55,31.67,2.54C398.4,55.71,399.32,58.09,400.71,60.56"/>
	<path class="st0" d="M331.71,58.4h-6.77V47.71h6.62v-11.4h12.81v11.18h10.96V58.3h-10.89c0,7.91-0.09,15.51,0.12,23.1
		c0.02,0.89,1.56,2.36,2.53,2.48c2.79,0.34,5.65,0.12,8.78,0.12c0,2.98,0.06,6.03-0.06,9.07c-0.02,0.51-0.79,1.41-1.24,1.44
		c-4.4,0.22-8.91,0.9-13.21,0.27c-6.56-0.97-9.55-5.06-9.63-11.76c-0.08-7.1-0.02-14.2-0.02-21.3V58.4z"/>
	<path class="st0" d="M481.1,94.5h-12.44V47.57c-3.81,2.19-7.23,4.15-11.03,6.34c0-4.16-0.09-7.92,0.07-11.68
		c0.04-0.82,0.84-1.84,1.58-2.36c3.54-2.5,6.93-5.43,10.85-7.08c3.21-1.35,7.08-1.13,10.97-1.65V94.5z"/>
	<path class="st0" d="M49.65,58.99c-5.79,0.03-9.66-3.4-9.71-8.59c-0.05-5.58,3.87-9.52,9.6-9.67c5.46-0.14,9.5,3.73,9.62,9.22
		C59.29,55.55,55.7,58.96,49.65,58.99"/>
</g>
</svg>
